<svg xmlns="http://www.w3.org/2000/svg" width="29.469" height="33.15" viewBox="0 0 29.469 33.15">
  <metadata><?xpacket begin="﻿" id="W5M0MpCehiHzreSzNTczkc9d"?>
<x:xmpmeta xmlns:x="adobe:ns:meta/" x:xmptk="Adobe XMP Core 5.6-c142 79.160924, 2017/07/13-01:06:39        ">
   <rdf:RDF xmlns:rdf="http://www.w3.org/1999/02/22-rdf-syntax-ns#">
      <rdf:Description rdf:about=""/>
   </rdf:RDF>
</x:xmpmeta>
                                                                                                    
                                                                                                    
                                                                                                    
                                                                                                    
                                                                                                    
                                                                                                    
                                                                                                    
                                                                                                    
                                                                                                    
                                                                                                    
                                                                                                    
                                                                                                    
                                                                                                    
                                                                                                    
                                                                                                    
                                                                                                    
                                                                                                    
                                                                                                    
                                                                                                    
                                                                                                    
                           
<?xpacket end="w"?></metadata>
<defs>
    <style>
      .cls-1 {
        fill: #fefefe;
        fill-rule: evenodd;
      }
    </style>
  </defs>
  <path id="Drawer_Icon" data-name="Drawer Icon" class="cls-1" d="M981.105,1194.35h-2.456a1.841,1.841,0,0,1-1.842-1.84c0,0.04-.223-0.61-2.456-0.61H962.07c-2.234,0-2.458.66-2.46,0.67a1.822,1.822,0,0,1-1.838,1.78h-2.456a1.839,1.839,0,0,1-1.842-1.84v-28.24a3.069,3.069,0,0,1,3.07-3.07h23.333a3.069,3.069,0,0,1,3.07,3.07v28.24A1.839,1.839,0,0,1,981.105,1194.35Zm0.614-30.08a1.848,1.848,0,0,0-1.842-1.85H956.544a1.848,1.848,0,0,0-1.842,1.85v9.82h27.017v-9.82Zm0,11.05H954.7v11.66h27.017v-11.66Zm0,15.35v-2.46H954.7v4.3a0.61,0.61,0,0,0,.614.61h2.456a0.611,0.611,0,0,0,.614-0.61c0-.19.1-1.84,3.684-1.84h12.281c3.581,0,3.684,1.65,3.684,1.84a0.611,0.611,0,0,0,.614.61h2.456a0.61,0.61,0,0,0,.614-0.61v-1.84Zm-17.807-11.05a0.61,0.61,0,0,1,.614.61v0.92a0.594,0.594,0,0,0,.614.31h6.141a0.594,0.594,0,0,0,.614-0.31v-0.92a0.614,0.614,0,0,1,1.228,0v0.92a1.713,1.713,0,0,1-1.842,1.54H965.14a1.713,1.713,0,0,1-1.842-1.54v-0.92A0.61,0.61,0,0,1,963.912,1179.62Zm0-12.9a0.619,0.619,0,0,1,.614.62v0.92a0.607,0.607,0,0,0,.614.3h6.141a0.607,0.607,0,0,0,.614-0.3v-0.92a0.614,0.614,0,1,1,1.228,0v0.92a1.712,1.712,0,0,1-1.842,1.53H965.14a1.713,1.713,0,0,1-1.842-1.53v-0.92A0.619,0.619,0,0,1,963.912,1166.72Z" transform="translate(-953.469 -1161.19)"/>
</svg>
