<svg xmlns="http://www.w3.org/2000/svg" width="36" height="40" viewBox="0 0 36 40">
  <metadata><?xpacket begin="﻿" id="W5M0MpCehiHzreSzNTczkc9d"?>
<x:xmpmeta xmlns:x="adobe:ns:meta/" x:xmptk="Adobe XMP Core 5.6-c142 79.160924, 2017/07/13-01:06:39        ">
   <rdf:RDF xmlns:rdf="http://www.w3.org/1999/02/22-rdf-syntax-ns#">
      <rdf:Description rdf:about=""/>
   </rdf:RDF>
</x:xmpmeta>
                                                                                                    
                                                                                                    
                                                                                                    
                                                                                                    
                                                                                                    
                                                                                                    
                                                                                                    
                                                                                                    
                                                                                                    
                                                                                                    
                                                                                                    
                                                                                                    
                                                                                                    
                                                                                                    
                                                                                                    
                                                                                                    
                                                                                                    
                                                                                                    
                                                                                                    
                                                                                                    
                           
<?xpacket end="w"?></metadata>
<defs>
    <style>
      .cls-1 {
        fill: #fefefe;
        fill-rule: evenodd;
      }
    </style>
  </defs>
  <path id="Bell_Icon" data-name="Bell Icon" class="cls-1" d="M34.966,17.268c-1.679,8.791-5.611,13.006-3,18.228a2.462,2.462,0,0,1,.534,2.47c-0.389.8-1.369,1.123-2.705,1.123-3.926,0-10.922-2.818-14.989-4.787a0.725,0.725,0,1,1,.635-1.3c9.349,4.527,15.309,5.237,15.751,4.334s-3.8-5.135-13.15-9.663a63.8,63.8,0,0,0-8.923-3.576,0.725,0.725,0,1,1,.426-1.386,65.278,65.278,0,0,1,9.132,3.659,59.081,59.081,0,0,1,11.073,6.824c-0.471-2.741.47-5.287,1.572-8.456A52.57,52.57,0,0,0,33.538,17C35.194,8.311,29.89,5.914,29.663,5.816L29.6,5.79l-0.069-.036A9.348,9.348,0,0,0,25.572,4.9c-3.072,0-5.873,1.443-8.324,4.29a62,62,0,0,0-4.6,6.221c-2.253,3.359-4.126,6.145-7.426,7.246a0.72,0.72,0,0,1-.723.417c-1.631-.159-2.148.138-2.21,0.266-0.094.193,0.164,1.181,2.5,3.136a0.725,0.725,0,0,1-.934,1.11c-2.513-2.1-3.454-3.7-2.877-4.88,0.353-.723,1.179-1.089,2.491-1.118C9.014,20.7,10.3,15.029,16.145,8.245,19.439,4.42,22.9,3.451,25.572,3.451a11.16,11.16,0,0,1,1.627.121A3.419,3.419,0,0,1,28.662.981,3.453,3.453,0,0,1,32.3.953a3.1,3.1,0,0,1,1.644,2.425A3.535,3.535,0,0,1,32.7,6.357C34.363,8.179,36.061,11.529,34.966,17.268ZM31.643,2.244a2.087,2.087,0,0,0-2.171-.059,1.963,1.963,0,0,0-.82,1.7,8.6,8.6,0,0,1,1.577.6,6.678,6.678,0,0,1,1.408.881A2.133,2.133,0,0,0,32.5,3.532,1.64,1.64,0,0,0,31.643,2.244ZM8.578,27.715a4.274,4.274,0,0,1,2,.5l1.089-1.393a0.73,0.73,0,0,1,1.02-.126,0.722,0.722,0,0,1,.127,1.016L11.729,29.1a4.235,4.235,0,0,1,1.133,2.88A4.282,4.282,0,1,1,8.578,27.715Zm0,7.084a2.818,2.818,0,1,0-2.828-2.818A2.826,2.826,0,0,0,8.578,34.8Z"/>
</svg>
