<svg xmlns="http://www.w3.org/2000/svg" width="187.152" height="194.53" viewBox="0 0 187.152 194.53">
  <metadata><?xpacket begin="﻿" id="W5M0MpCehiHzreSzNTczkc9d"?>
<x:xmpmeta xmlns:x="adobe:ns:meta/" x:xmptk="Adobe XMP Core 5.6-c142 79.160924, 2017/07/13-01:06:39        ">
   <rdf:RDF xmlns:rdf="http://www.w3.org/1999/02/22-rdf-syntax-ns#">
      <rdf:Description rdf:about=""/>
   </rdf:RDF>
</x:xmpmeta>
                                                                                                    
                                                                                                    
                                                                                                    
                                                                                                    
                                                                                                    
                                                                                                    
                                                                                                    
                                                                                                    
                                                                                                    
                                                                                                    
                                                                                                    
                                                                                                    
                                                                                                    
                                                                                                    
                                                                                                    
                                                                                                    
                                                                                                    
                                                                                                    
                                                                                                    
                                                                                                    
                           
<?xpacket end="w"?></metadata>
<defs>
    <style>
      .cls-1 {
        fill: #040405;
        fill-rule: evenodd;
        opacity: 0.2;
      }
    </style>
  </defs>
  <path id="Umbrella_Icon" data-name="Umbrella Icon" class="cls-1" d="M1041.24,995.4a3.6,3.6,0,0,1-3.6-3.6c0-.961-0.04-1.9-0.07-2.84-1.47-2.993-8.08-14.341-24.01-14.341-17.968,0-24.1,14.453-24.354,15.068a3.6,3.6,0,0,1-6.422.5c-0.38-.625-9.76-15.57-31.521-15.57-21.932,0-31.426,15.414-31.521,15.57a3.508,3.508,0,0,1-3.374,1.736,3.6,3.6,0,0,1-3.054-2.252c-0.247-.6-6.38-15.054-24.344-15.054-15.908,0-22.53,11.321-24.014,14.339-0.028.946-.073,1.881-0.073,2.842a3.6,3.6,0,1,1-7.2,0c0-1.027.042-2.038,0.074-3.055a3.459,3.459,0,0,1,.021-0.873c1.951-48.3,39.693-84.524,89.885-86.185V881.867a3.6,3.6,0,1,1,7.2,0v19.822c50.188,1.661,87.938,37.885,89.888,86.184a3.753,3.753,0,0,1,.02.885c0.03,1.012.07,2.021,0.07,3.044A3.6,3.6,0,0,1,1041.24,995.4Zm-89.977-86.592c-37.482,0-77.042,23.32-84.939,66.863,4.885-4.333,12.168-8.258,22.646-8.258,15.574,0,24.157,8.661,28.164,14.47,5.156-5.649,16.1-14.47,34.129-14.47s28.973,8.821,34.129,14.47c4.007-5.809,12.59-14.47,28.168-14.47,10.47,0,17.76,3.925,22.64,8.258C1028.3,932.132,988.746,908.812,951.263,908.812Zm-43.19,127.948a3.6,3.6,0,0,1,3.6,3.6v7.2c0,11.83,9.054,18.01,18,18.01s18-6.18,18-18.01V986.329a3.6,3.6,0,1,1,7.2,0v61.231c0,16.38-12.98,25.22-25.194,25.22s-25.194-8.84-25.194-25.22v-7.2A3.6,3.6,0,0,1,908.073,1036.76Z" transform="translate(-857.688 -878.25)"/>
</svg>
